<svg xmlns="http://www.w3.org/2000/svg" width="1600" height="1600" viewBox="0 0 1600 1600">
  <rect width="1600" height="1600" fill="#000000"/>
  <g transform="translate(92 86)">
    <text x="0" y="0" fill="#888888" font-family="Arial, Helvetica, sans-serif" font-size="22" font-weight="700" letter-spacing="3">DIRECTION 03</text>
    <text x="0" y="55" fill="#FFFFFF" font-family="Arial, Helvetica, sans-serif" font-size="52" font-weight="800">Shift Lines</text>
    <text x="0" y="94" fill="#888888" font-family="Arial, Helvetica, sans-serif" font-size="23">A secondary STT monogram built like rink markings</text>
  </g>

  <!-- large icon -->
  <g transform="translate(150 240)">
    <rect width="390" height="390" rx="88" fill="#111111"/>
    <path d="M78 94H196C224 94 235 110 235 130C235 150 223 164 196 164H150C122 164 110 180 110 200C110 222 124 236 151 236H270" fill="none" stroke="#4DA3FF" stroke-width="34" stroke-linecap="square" stroke-linejoin="round"/>
    <path d="M196 94H310 M253 95V294" fill="none" stroke="#FFFFFF" stroke-width="34" stroke-linecap="square"/>
    <path d="M104 294H218 M161 238V294" fill="none" stroke="#FFFFFF" stroke-width="34" stroke-linecap="square"/>
  </g>

  <!-- lockup -->
  <g transform="translate(650 292)">
    <g transform="scale(.5)">
      <path d="M78 94H196C224 94 235 110 235 130C235 150 223 164 196 164H150C122 164 110 180 110 200C110 222 124 236 151 236H270" fill="none" stroke="#4DA3FF" stroke-width="34" stroke-linecap="square" stroke-linejoin="round"/>
      <path d="M196 94H310 M253 95V294" fill="none" stroke="#FFFFFF" stroke-width="34" stroke-linecap="square"/>
      <path d="M104 294H218 M161 238V294" fill="none" stroke="#FFFFFF" stroke-width="34" stroke-linecap="square"/>
    </g>
    <text x="230" y="70" fill="#FFFFFF" font-family="Arial, Helvetica, sans-serif" font-size="56" font-weight="700" letter-spacing="-1">Smart Team</text>
    <text x="230" y="137" fill="#FFFFFF" font-family="Arial, Helvetica, sans-serif" font-size="64" font-weight="900" letter-spacing="-3">TRACKER</text>
  </g>

  <!-- small size test -->
  <g transform="translate(682 1030)">
    <text x="0" y="0" fill="#888888" font-family="Arial, Helvetica, sans-serif" font-size="19" font-weight="700" letter-spacing="2">ACTUAL-SIZE TEST</text>
    <rect x="0" y="32" width="112" height="112" rx="25" fill="#111111"/>
    <g transform="translate(40 72) scale(.08205)">
      <path d="M78 94H196C224 94 235 110 235 130C235 150 223 164 196 164H150C122 164 110 180 110 200C110 222 124 236 151 236H270" fill="none" stroke="#4DA3FF" stroke-width="42" stroke-linecap="square" stroke-linejoin="round"/>
      <path d="M196 94H310 M253 95V294" fill="none" stroke="#FFFFFF" stroke-width="42" stroke-linecap="square"/>
      <path d="M104 294H218 M161 238V294" fill="none" stroke="#FFFFFF" stroke-width="42" stroke-linecap="square"/>
    </g>
    <text x="129" y="92" fill="#FFFFFF" font-family="Arial, Helvetica, sans-serif" font-size="24" font-weight="800">32 px</text>
    <text x="129" y="123" fill="#888888" font-family="Arial, Helvetica, sans-serif" font-size="18">secondary mark only</text>
  </g>

  <text x="92" y="1510" fill="#666666" font-family="Arial, Helvetica, sans-serif" font-size="18">Concept sketch — the full name remains mandatory in every primary lockup</text>
</svg>
