<svg xmlns="http://www.w3.org/2000/svg" viewBox="0 0 128 128">
  <defs>
    <mask id="cut">
      <rect width="128" height="128" fill="#000"/>
      <path d="M31 17C43 11 52 9 64 9s21 2 33 8c5 2 8 7 8 12v41c0 23-15 38-41 50C38 108 23 93 23 70V29c0-5 3-10 8-12Z" fill="#fff"/>
      <path d="M83 34H55c-12 0-18 6-18 14s6 13 18 13h18c12 0 18 6 18 15s-7 16-20 16H43" fill="none" stroke="#000" stroke-width="12" stroke-linecap="round" stroke-linejoin="round"/>
      <circle cx="84" cy="34" r="7" fill="#000"/>
    </mask>
  </defs>
  <rect width="128" height="128" fill="#17B6C8" mask="url(#cut)"/>
</svg>
