<svg xmlns="http://www.w3.org/2000/svg" width="1600" height="1600" viewBox="0 0 1600 1600">
  <defs>
    <filter id="glow" x="-50%" y="-50%" width="200%" height="200%"><feGaussianBlur stdDeviation="8" result="b"/><feMerge><feMergeNode in="b"/><feMergeNode in="SourceGraphic"/></feMerge></filter>
    <symbol id="cut-crest" viewBox="0 0 128 128">
      <defs><mask id="board-cut"><rect width="128" height="128" fill="#000"/><path d="M31 17C43 11 52 9 64 9s21 2 33 8c5 2 8 7 8 12v41c0 23-15 38-41 50C38 108 23 93 23 70V29c0-5 3-10 8-12Z" fill="#fff"/><path d="M83 34H55c-12 0-18 6-18 14s6 13 18 13h18c12 0 18 6 18 15s-7 16-20 16H43" fill="none" stroke="#000" stroke-width="12" stroke-linecap="round" stroke-linejoin="round"/><circle cx="84" cy="34" r="7" fill="#000"/></mask></defs>
      <rect width="128" height="128" fill="currentColor" mask="url(#board-cut)"/>
    </symbol>
    <symbol id="puck-index" viewBox="0 0 128 128">
      <path d="M21 96V56c0-21 14-34 35-34h26M107 32V72c0 21-14 34-35 34H46" fill="none" stroke="#EEF4FA" stroke-width="14" stroke-linecap="round"/>
      <path d="M43 84 64 63 85 42" fill="none" stroke="currentColor" stroke-width="10" stroke-linecap="round" stroke-linejoin="round"/><circle cx="64" cy="63" r="9" fill="currentColor"/><circle cx="64" cy="63" r="3.5" fill="#0C1219"/>
    </symbol>
    <symbol id="ice-aperture" viewBox="0 0 128 128">
      <path d="M53 19H37c-10 0-18 8-18 18v16M75 19h16c10 0 18 8 18 18v16M109 75v16c0 10-8 18-18 18H75M53 109H37c-10 0-18-8-18-18V75" fill="none" stroke="#EEF4FA" stroke-width="14" stroke-linecap="round"/><circle cx="64" cy="64" r="19" fill="none" stroke="currentColor" stroke-width="10"/><circle cx="64" cy="64" r="7" fill="currentColor"/>
    </symbol>
    <symbol id="blade-s" viewBox="0 0 128 128">
      <path d="M100 25H52c-15 0-24 8-24 19 0 12 9 19 24 19h24c15 0 24 8 24 20 0 13-10 21-26 21H27" fill="none" stroke="#EEF4FA" stroke-width="17" stroke-linecap="square" stroke-linejoin="round"/><path d="M27 104h47c16 0 26-8 26-21" fill="none" stroke="currentColor" stroke-width="7" stroke-linecap="square"/><circle cx="28" cy="44" r="6" fill="currentColor"/>
    </symbol>
    <style>
      .display{font-family:'Saira Semi Condensed','Arial Narrow',Arial,sans-serif}.ui{font-family:'Hanken Grotesk',Arial,sans-serif}.card{fill:#0C1219;stroke:rgba(255,255,255,.16);stroke-width:1}.eyebrow{fill:#17B6C8;font-size:20px;font-weight:800;letter-spacing:3px}.name{fill:#EEF4FA;font-size:32px;font-weight:800;letter-spacing:.2px}.desc{fill:#C2CEDD;font-size:18px;font-weight:600}.label{fill:#9DAABE;font-size:15px;font-weight:700;letter-spacing:1.8px}.small{fill:#C2CEDD;font-size:14px;font-weight:600}
    </style>
  </defs>
  <rect width="1600" height="1600" fill="#05070C"/>
  <text x="80" y="82" class="display" fill="#EEF4FA" font-size="52" font-weight="900" letter-spacing="-1">SMART TEAM TRACKER — A1 MARK DIRECTIONS</text>
  <text x="82" y="126" class="ui" fill="#C2CEDD" font-size="21" font-weight="600">Ice system · teal is the only brand color · every mark tested on #0C1219</text>

  <!-- card 1 -->
  <g transform="translate(80 180)">
    <rect class="card" width="700" height="610" rx="22"/><path d="M22 .5H678" stroke="rgba(255,255,255,.36)"/>
    <use href="#cut-crest" x="54" y="88" width="260" height="260" color="#17B6C8"/>
    <text x="360" y="92" class="display eyebrow">01 · CUT CREST</text>
    <text x="360" y="142" class="display name">Shield + negative-space S</text>
    <text x="360" y="179" class="ui desc">The product crest becomes the brand.</text>
    <text x="360" y="207" class="ui desc">A skate-cut S and puck live inside.</text>
    <text x="360" y="270" class="ui label">SMALL-SIZE TEST</text>
    <rect x="360" y="293" width="70" height="70" rx="15" fill="#141C26"/><use href="#cut-crest" x="379" y="312" width="32" height="32" color="#17B6C8"/>
    <rect x="444" y="293" width="70" height="70" rx="15" fill="#141C26"/><use href="#cut-crest" x="471" y="320" width="16" height="16" color="#17B6C8"/>
    <text x="360" y="388" class="ui small">32 px</text><text x="444" y="388" class="ui small">16 px</text>
    <text x="360" y="444" class="ui label">MONO</text><use href="#cut-crest" x="360" y="466" width="86" height="86" color="#FFFFFF"/>
    <text x="54" y="563" class="ui small">Most ownable · strongest tie to the existing crest component</text>
  </g>

  <!-- card 2 -->
  <g transform="translate(820 180)">
    <rect class="card" width="700" height="610" rx="22"/><path d="M22 .5H678" stroke="rgba(255,255,255,.36)"/>
    <use href="#puck-index" x="54" y="88" width="260" height="260" color="#17B6C8"/>
    <text x="360" y="92" class="display eyebrow">02 · PUCK INDEX</text>
    <text x="360" y="142" class="display name">Rink corners + rising datum</text>
    <text x="360" y="179" class="ui desc">Two opposing rink corners frame</text>
    <text x="360" y="207" class="ui desc">a tracked puck on an insight line.</text>
    <text x="360" y="270" class="ui label">SMALL-SIZE TEST</text>
    <rect x="360" y="293" width="70" height="70" rx="15" fill="#141C26"/><use href="#puck-index" x="379" y="312" width="32" height="32" color="#17B6C8"/>
    <rect x="444" y="293" width="70" height="70" rx="15" fill="#141C26"/><use href="#puck-index" x="471" y="320" width="16" height="16" color="#17B6C8"/>
    <text x="360" y="388" class="ui small">32 px</text><text x="444" y="388" class="ui small">16 px</text>
    <text x="360" y="444" class="ui label">MONO</text>
    <g transform="translate(360 466) scale(.672)"><path d="M21 96V56c0-21 14-34 35-34h26M107 32V72c0 21-14 34-35 34H46" fill="none" stroke="#fff" stroke-width="14" stroke-linecap="round"/><path d="M43 84 64 63 85 42" fill="none" stroke="#fff" stroke-width="10" stroke-linecap="round"/><circle cx="64" cy="63" r="9" fill="#fff"/><circle cx="64" cy="63" r="3.5" fill="#0C1219"/></g>
    <text x="54" y="563" class="ui small">Most analytical · clearest hockey/insight intersection</text>
  </g>

  <!-- card 3 -->
  <g transform="translate(80 830)">
    <rect class="card" width="700" height="610" rx="22"/><path d="M22 .5H678" stroke="rgba(255,255,255,.36)"/>
    <use href="#ice-aperture" x="54" y="88" width="260" height="260" color="#17B6C8"/>
    <text x="360" y="92" class="display eyebrow">03 · ICE APERTURE</text>
    <text x="360" y="142" class="display name">Tracking frame + centre puck</text>
    <text x="360" y="179" class="ui desc">Four rink corners become a live</text>
    <text x="360" y="207" class="ui desc">tracking aperture around one event.</text>
    <text x="360" y="270" class="ui label">SMALL-SIZE TEST</text>
    <rect x="360" y="293" width="70" height="70" rx="15" fill="#141C26"/><use href="#ice-aperture" x="379" y="312" width="32" height="32" color="#17B6C8"/>
    <rect x="444" y="293" width="70" height="70" rx="15" fill="#141C26"/><use href="#ice-aperture" x="471" y="320" width="16" height="16" color="#17B6C8"/>
    <text x="360" y="388" class="ui small">32 px</text><text x="444" y="388" class="ui small">16 px</text>
    <text x="360" y="444" class="ui label">MONO</text>
    <g transform="translate(360 466) scale(.672)"><path d="M53 19H37c-10 0-18 8-18 18v16M75 19h16c10 0 18 8 18 18v16M109 75v16c0 10-8 18-18 18H75M53 109H37c-10 0-18-8-18-18V75" fill="none" stroke="#fff" stroke-width="14" stroke-linecap="round"/><circle cx="64" cy="64" r="19" fill="none" stroke="#fff" stroke-width="10"/><circle cx="64" cy="64" r="7" fill="#fff"/></g>
    <text x="54" y="563" class="ui small">Best favicon · most immediate live-tracking signal</text>
  </g>

  <!-- card 4 -->
  <g transform="translate(820 830)">
    <rect class="card" width="700" height="610" rx="22"/><path d="M22 .5H678" stroke="rgba(255,255,255,.36)"/>
    <use href="#blade-s" x="54" y="88" width="260" height="260" color="#17B6C8"/>
    <text x="360" y="92" class="display eyebrow">04 · BLADE S</text>
    <text x="360" y="142" class="display name">Athletic S + skate edge</text>
    <text x="360" y="179" class="ui desc">A hard-drawn S carries a teal blade</text>
    <text x="360" y="207" class="ui desc">edge and a single puck/data point.</text>
    <text x="360" y="270" class="ui label">SMALL-SIZE TEST</text>
    <rect x="360" y="293" width="70" height="70" rx="15" fill="#141C26"/><use href="#blade-s" x="379" y="312" width="32" height="32" color="#17B6C8"/>
    <rect x="444" y="293" width="70" height="70" rx="15" fill="#141C26"/><use href="#blade-s" x="471" y="320" width="16" height="16" color="#17B6C8"/>
    <text x="360" y="388" class="ui small">32 px</text><text x="444" y="388" class="ui small">16 px</text>
    <text x="360" y="444" class="ui label">MONO</text>
    <g transform="translate(360 466) scale(.672)"><path d="M100 25H52c-15 0-24 8-24 19 0 12 9 19 24 19h24c15 0 24 8 24 20 0 13-10 21-26 21H27" fill="none" stroke="#fff" stroke-width="17" stroke-linecap="square" stroke-linejoin="round"/><path d="M27 104h47c16 0 26-8 26-21" fill="none" stroke="#fff" stroke-width="7" stroke-linecap="square"/><circle cx="28" cy="44" r="6" fill="#fff"/></g>
    <text x="54" y="563" class="ui small">Most athletic · strongest standalone letter recognition</text>
  </g>
  <text x="80" y="1515" class="ui" fill="#9DAABE" font-size="18">Concept stage only — no lockups or production filenames created until one A1 mark is approved.</text>
</svg>
